<?xml version="1.0" standalone="no"?>
<!DOCTYPE svg PUBLIC "-//W3C//DTD SVG 20010904//EN"
 "http://www.w3.org/TR/2001/REC-SVG-20010904/DTD/svg10.dtd">
<svg version="1.0" xmlns="http://www.w3.org/2000/svg"
 width="300.000000pt" height="267.000000pt" viewBox="0 0 300.000000 267.000000"
 preserveAspectRatio="xMidYMid meet">

<g transform="translate(0.000000,267.000000) scale(0.100000,-0.100000)"
fill="#000000" stroke="none">
<path d="M1544 2656 c-13 -10 -34 -13 -66 -9 -66 8 -110 -3 -154 -38 -21 -17
-51 -33 -67 -36 -17 -3 -33 -16 -42 -33 -8 -16 -26 -31 -42 -35 -119 -29 -299
-127 -410 -222 -115 -99 -217 -258 -252 -394 -13 -50 -25 -74 -44 -89 -31 -25
-34 -45 -9 -59 15 -8 21 -31 30 -105 7 -54 25 -132 42 -178 26 -70 28 -83 15
-91 -8 -4 -48 -34 -89 -67 -73 -58 -158 -154 -210 -237 -23 -37 -31 -43 -61
-43 -52 0 -95 -22 -137 -68 -46 -51 -54 -79 -39 -139 26 -101 93 -197 150
-214 43 -13 39 -2 62 -152 l12 -78 56 -40 c53 -37 58 -45 97 -142 23 -56 39
-105 37 -110 -2 -4 -18 -7 -34 -7 -35 0 -99 -25 -99 -39 0 -5 5 -13 11 -16 12
-8 2385 -6 2417 2 43 10 19 30 -59 47 l-27 6 35 112 c29 94 40 117 66 138 90
71 120 131 121 242 l1 76 35 17 c19 10 42 20 49 24 28 14 53 59 58 104 4 32
-3 82 -22 158 -25 100 -31 113 -54 122 -15 5 -39 31 -55 58 -67 111 -198 214
-311 244 -53 15 -65 21 -59 34 50 111 58 156 59 301 0 102 4 149 13 158 17 19
15 25 -13 52 -14 13 -43 60 -64 105 -110 226 -329 404 -599 485 -59 18 -72 25
-67 39 3 10 -3 25 -13 34 -20 19 -112 61 -118 54 -2 -2 23 -15 56 -30 49 -21
60 -30 60 -49 0 -36 -19 -48 -76 -48 -28 0 -68 -7 -89 -16 -38 -15 -82 -12
-117 9 -13 9 -26 7 -53 -6 -57 -27 -71 -23 -79 25 l-7 41 -33 -32 c-55 -53
-142 -53 -129 0 4 12 23 28 47 39 23 9 49 27 60 38 25 28 114 48 154 34 25 -8
38 -7 72 10 39 19 43 20 81 5 46 -18 51 -14 9 8 -36 19 -80 19 -106 1z m-149
-196 c11 -9 26 -8 66 5 41 14 55 15 74 5 14 -7 41 -10 71 -6 152 18 191 23
205 30 35 15 244 -71 368 -151 86 -56 220 -197 268 -284 69 -123 69 -122 -38
-82 -215 81 -472 125 -734 126 -171 0 -350 -7 -375 -16 -8 -3 -46 -11 -85 -17
-197 -32 -425 -101 -593 -181 l-103 -48 6 32 c13 58 65 174 107 234 110 160
300 299 496 364 60 20 67 20 97 6 44 -21 111 -12 133 18 l17 23 3 -23 c2 -13
10 -29 17 -35z m367 -402 c-28 -17 -43 -20 -95 -16 -34 3 -102 3 -150 -1 -68
-5 -94 -3 -115 8 l-27 15 30 7 c17 4 111 7 210 8 l180 1 -33 -22z m228 2 c158
-22 522 -130 559 -166 30 -28 0 -24 -130 20 -164 54 -337 94 -481 109 -59 6
-108 15 -108 19 0 4 4 8 10 8 5 0 7 7 3 15 -6 17 -12 17 147 -5z m-667 -14
c25 -19 21 -26 -15 -26 -60 0 -325 -59 -450 -100 -67 -22 -179 -68 -248 -102
-135 -67 -141 -69 -147 -51 -9 25 217 130 429 198 100 33 357 93 398 94 8 0
23 -6 33 -13z m366 -30 c-2 -2 -31 -20 -63 -39 l-60 -35 -53 36 c-29 19 -53
36 -53 38 0 2 53 4 117 4 64 0 114 -2 112 -4z m386 -36 c126 -22 338 -79 407
-108 55 -24 61 -42 61 -178 -1 -110 -21 -193 -72 -299 -113 -238 -357 -420
-664 -496 -107 -26 -342 -36 -457 -20 -315 46 -584 209 -734 443 -64 102 -101
211 -112 339 l-7 79 94 44 c203 94 440 168 662 206 86 14 124 17 138 10 27
-15 25 -17 -27 -18 -168 -2 -320 -202 -284 -375 23 -112 96 -172 205 -171 123
1 238 99 280 237 l13 42 7 -30 c54 -213 288 -322 425 -199 169 153 10 497
-229 497 l-54 0 32 16 c37 20 131 14 316 -19z m-615 -39 c66 -33 107 -125 96
-215 -16 -140 -153 -276 -278 -276 -34 0 -95 24 -121 48 -108 97 -67 326 74
419 78 51 156 59 229 24z m427 -3 c94 -43 173 -173 173 -281 -1 -127 -99 -220
-213 -203 -216 32 -331 340 -177 470 17 14 44 29 58 32 15 3 32 7 37 9 19 6
80 -7 122 -27z m-267 -32 c-6 -8 -20 -36 -30 -63 -11 -26 -19 -39 -20 -28 0
11 -7 33 -15 49 -19 35 -19 35 3 30 9 -3 26 2 37 10 26 20 41 20 25 2z m1250
-847 c59 -12 60 -14 90 -136 38 -154 26 -199 -63 -244 -87 -43 -151 -37 -210
19 -25 24 -38 27 -110 31 -119 5 -130 20 -72 95 19 26 35 53 35 60 0 8 23 48
51 90 49 74 52 76 92 77 23 0 60 4 82 8 22 5 43 9 47 10 4 0 30 -4 58 -10z
m-2482 -159 c97 -58 152 -97 148 -105 -2 -7 9 -25 25 -41 32 -31 34 -41 18
-78 -18 -40 -61 -51 -199 -52 -69 0 -147 -4 -173 -9 -47 -8 -48 -7 -89 36 -47
50 -89 134 -95 193 -4 34 0 48 25 82 39 53 84 76 142 71 35 -3 78 -24 198 -97z
m949 -107 c39 -18 73 -65 73 -100 0 -20 -5 -23 -40 -23 -24 0 -40 5 -40 12 0
21 -33 48 -58 48 -34 0 -62 -27 -62 -60 0 -40 20 -59 72 -69 87 -16 132 -67
130 -148 -1 -103 -116 -168 -210 -119 -37 19 -72 70 -72 104 0 18 5 22 33 22
25 0 39 -7 55 -30 39 -52 112 -34 112 27 0 34 -27 63 -57 63 -38 0 -87 25
-116 59 -22 26 -27 43 -27 83 0 115 103 181 207 131z m197 -132 c16 -80 32
-139 34 -133 2 7 16 72 31 145 l27 132 43 3 c37 3 42 1 37 -15 -2 -10 -26
-119 -51 -243 -26 -123 -49 -228 -51 -232 -7 -10 -71 -10 -77 0 -3 4 -26 108
-51 232 -26 124 -49 233 -52 243 -5 16 0 18 37 15 l43 -3 30 -144z m392 133
c37 -18 74 -69 74 -103 0 -18 -6 -21 -40 -21 -24 0 -40 5 -40 12 0 41 -68 62
-102 31 -16 -14 -18 -33 -18 -146 0 -143 8 -167 58 -167 40 0 62 27 62 77 0
41 -1 43 -30 43 -28 0 -30 2 -30 40 l0 40 76 0 75 0 -4 -89 c-4 -101 -23 -144
-76 -175 -65 -38 -155 -14 -193 50 -14 25 -18 56 -19 177 -1 133 1 150 20 181
38 61 118 83 187 50z"/>
<path d="M2321 1309 c-66 -71 -192 -162 -350 -250 -217 -122 -326 -150 -448
-116 -32 9 -112 21 -179 26 -180 14 -273 51 -387 150 -97 85 -228 184 -234
177 -8 -8 -13 -3 142 -131 206 -169 274 -200 470 -216 65 -6 137 -14 160 -20
118 -30 121 -30 196 -15 149 31 492 229 630 364 61 60 84 94 62 91 -5 -1 -32
-28 -62 -60z"/>
<path d="M1550 1173 c-37 -6 -100 -35 -100 -46 0 -5 8 -6 18 -2 71 31 122 33
201 9 18 -5 22 -4 17 5 -14 23 -90 42 -136 34z"/>
<path d="M1665 1040 c-62 -23 -86 -24 -153 -6 -55 14 -83 3 -37 -14 62 -24
131 -23 199 1 36 13 66 27 66 31 0 12 -19 9 -75 -12z"/>
<path d="M1396 1724 c-22 -21 -4 -54 29 -54 28 0 43 33 25 55 -16 19 -35 19
-54 -1z"/>
<path d="M1720 1711 c-11 -21 9 -51 34 -51 21 0 38 27 31 50 -8 26 -51 27 -65
1z"/>
</g>
</svg>
