<?xml version="1.0" encoding="utf-8"?><!-- Uploaded to: SVG Repo, www.svgrepo.com, Generator: SVG Repo Mixer Tools -->
<svg width="800px" height="800px" viewBox="0 0 24 24" id="_24x24_On_Light_User-Alert" data-name="24x24/On Light/User-Alert" xmlns="http://www.w3.org/2000/svg">
  <rect id="view-box" width="24" height="24" fill="none"/>
  <path id="Shape" d="M9.75,19.5A9.75,9.75,0,1,1,11.68.192,5.479,5.479,0,0,0,11,1.6,8.254,8.254,0,0,0,1.5,9.75a8.163,8.163,0,0,0,1.713,5.027A5.594,5.594,0,0,1,5.135,13.7c.141-.052.288-.1.475-.167l.443-.149c.855-.293,1.169-.481,1.244-.747l0-.009.005-.024a.771.771,0,0,0-.058-.519.907.907,0,0,0-.237-.271A4.359,4.359,0,0,1,5.5,8.417,4.29,4.29,0,0,1,9.75,4a4.1,4.1,0,0,1,1.072.143,5.505,5.505,0,0,0,.937,2.28A2.7,2.7,0,0,0,9.75,5.5,2.807,2.807,0,0,0,7,8.417a2.848,2.848,0,0,0,1,2.274,2.28,2.28,0,0,1,.571.695,2.208,2.208,0,0,1,.2,1.537,1.41,1.41,0,0,1-.045.171c-.244.9-.9,1.271-2.188,1.711l-.445.15c-.166.056-.3.1-.437.154a4.286,4.286,0,0,0-1.419.77,8.234,8.234,0,0,0,11.03,0,4.3,4.3,0,0,0-1.421-.751c-.112-.041-.229-.081-.377-.13l-.386-.13c-1.332-.45-2.015-.825-2.293-1.742a1.863,1.863,0,0,1-.055-.223,2.36,2.36,0,0,1,.138-1.4,2.122,2.122,0,0,1,.589-.795,2.815,2.815,0,0,0,1.042-2.3,3.018,3.018,0,0,0-.489-1.666A5.557,5.557,0,0,0,14,8.268q0,.074,0,.149a4.3,4.3,0,0,1-1.559,3.427.673.673,0,0,0-.194.255.92.92,0,0,0-.043.527c.006.031.01.046.013.055.08.26.431.461,1.342.769l.384.129c.147.05.279.095.408.141a5.6,5.6,0,0,1,1.935,1.058A8.169,8.169,0,0,0,18,9.75,8.308,8.308,0,0,0,17.9,8.5a5.478,5.478,0,0,0,1.4-.676A9.755,9.755,0,0,1,9.75,19.5ZM17.362,6.569h0a8.342,8.342,0,0,0-4.431-4.43,3.527,3.527,0,0,1,.782-1.3,9.774,9.774,0,0,1,4.946,4.945,3.525,3.525,0,0,1-1.3.781Z" transform="translate(2.25 2.25)" fill="#141124"/>
  <path id="Shape-2" data-name="Shape" d="M3.5,7A3.5,3.5,0,1,1,7,3.5,3.5,3.5,0,0,1,3.5,7Z" transform="translate(15 2)" fill="#ff6359"/>
</svg>